<svg xmlns="http://www.w3.org/2000/svg" viewBox="0 0 100 100" preserveAspectRatio="xMidYMid" width="110" height="110" style="shape-rendering: auto; display: block; background: transparent;" xmlns:xlink="http://www.w3.org/1999/xlink"><g><g transform="rotate(0 50 50)">
  <rect fill="#1c79c0" height="5" width="6" ry="2.46" rx="2.46" y="27.5" x="47">
    <animate repeatCount="indefinite" begin="-0.4407051282051283s" dur="0.48076923076923084s" keyTimes="0;1" values="1;0" attributeName="opacity"></animate>
  </rect>
</g><g transform="rotate(30 50 50)">
  <rect fill="#1c79c0" height="5" width="6" ry="2.46" rx="2.46" y="27.5" x="47">
    <animate repeatCount="indefinite" begin="-0.4006410256410257s" dur="0.48076923076923084s" keyTimes="0;1" values="1;0" attributeName="opacity"></animate>
  </rect>
</g><g transform="rotate(60 50 50)">
  <rect fill="#1c79c0" height="5" width="6" ry="2.46" rx="2.46" y="27.5" x="47">
    <animate repeatCount="indefinite" begin="-0.3605769230769232s" dur="0.48076923076923084s" keyTimes="0;1" values="1;0" attributeName="opacity"></animate>
  </rect>
</g><g transform="rotate(90 50 50)">
  <rect fill="#1c79c0" height="5" width="6" ry="2.46" rx="2.46" y="27.5" x="47">
    <animate repeatCount="indefinite" begin="-0.3205128205128206s" dur="0.48076923076923084s" keyTimes="0;1" values="1;0" attributeName="opacity"></animate>
  </rect>
</g><g transform="rotate(120 50 50)">
  <rect fill="#1c79c0" height="5" width="6" ry="2.46" rx="2.46" y="27.5" x="47">
    <animate repeatCount="indefinite" begin="-0.280448717948718s" dur="0.48076923076923084s" keyTimes="0;1" values="1;0" attributeName="opacity"></animate>
  </rect>
</g><g transform="rotate(150 50 50)">
  <rect fill="#1c79c0" height="5" width="6" ry="2.46" rx="2.46" y="27.5" x="47">
    <animate repeatCount="indefinite" begin="-0.24038461538461545s" dur="0.48076923076923084s" keyTimes="0;1" values="1;0" attributeName="opacity"></animate>
  </rect>
</g><g transform="rotate(180 50 50)">
  <rect fill="#1c79c0" height="5" width="6" ry="2.46" rx="2.46" y="27.5" x="47">
    <animate repeatCount="indefinite" begin="-0.20032051282051286s" dur="0.48076923076923084s" keyTimes="0;1" values="1;0" attributeName="opacity"></animate>
  </rect>
</g><g transform="rotate(210 50 50)">
  <rect fill="#1c79c0" height="5" width="6" ry="2.46" rx="2.46" y="27.5" x="47">
    <animate repeatCount="indefinite" begin="-0.1602564102564103s" dur="0.48076923076923084s" keyTimes="0;1" values="1;0" attributeName="opacity"></animate>
  </rect>
</g><g transform="rotate(240 50 50)">
  <rect fill="#1c79c0" height="5" width="6" ry="2.46" rx="2.46" y="27.5" x="47">
    <animate repeatCount="indefinite" begin="-0.12019230769230772s" dur="0.48076923076923084s" keyTimes="0;1" values="1;0" attributeName="opacity"></animate>
  </rect>
</g><g transform="rotate(270 50 50)">
  <rect fill="#1c79c0" height="5" width="6" ry="2.46" rx="2.46" y="27.5" x="47">
    <animate repeatCount="indefinite" begin="-0.08012820512820515s" dur="0.48076923076923084s" keyTimes="0;1" values="1;0" attributeName="opacity"></animate>
  </rect>
</g><g transform="rotate(300 50 50)">
  <rect fill="#1c79c0" height="5" width="6" ry="2.46" rx="2.46" y="27.5" x="47">
    <animate repeatCount="indefinite" begin="-0.040064102564102574s" dur="0.48076923076923084s" keyTimes="0;1" values="1;0" attributeName="opacity"></animate>
  </rect>
</g><g transform="rotate(330 50 50)">
  <rect fill="#1c79c0" height="5" width="6" ry="2.46" rx="2.46" y="27.5" x="47">
    <animate repeatCount="indefinite" begin="0s" dur="0.48076923076923084s" keyTimes="0;1" values="1;0" attributeName="opacity"></animate>
  </rect>
</g><g></g></g><!-- [ldio] generated by https://loading.io --></svg>